# xmcd
# 
# Track frame offsets:
#     150
#     17332
#     35264
# 
# Disc length: 736
# 
# Revision: 6
# Processed by: cddbd v1.5.2PL0 Copyright (c) Steve Scherf et al.
# Submitted via: fre:ac v1.0.17
# 
DISCID=1302de03
DTITLE=水樹奈々 - Trinity Cross
DYEAR=2008
DGENRE=seiyu
TTITLE0=Trickster
TTITLE1=DISCOTHEQUE
TTITLE2=Trinity Cross
EXTD=
EXTT0=
EXTT1=
EXTT2=
PLAYORDER=
